<svg width="27" height="26" fill="none" xmlns="http://www.w3.org/2000/svg"><path fill-rule="evenodd" clip-rule="evenodd" d="M18.254.071c-1.039.209-2.1.776-2.833 1.515-1.032 1.04-1.651 2.47-1.608 3.71l.013.382.412-.006c.965-.013 1.91-.465 2.818-1.347C18.21 3.203 18.818 1.87 18.818.458V0l-.125.004a3.938 3.938 0 0 0-.439.067Zm-.78 5.701c-.492.094-.938.222-1.619.467a47.11 47.11 0 0 1-1.14.39c-.777.252-.852.243-2.28-.252-1.528-.53-1.836-.602-2.575-.603-1.962 0-3.826 1.073-4.956 2.852-.436.687-.823 1.715-1.003 2.668-.09.48-.102.687-.1 1.718 0 .976.017 1.273.1 1.777.34 2.097 1.16 4.24 2.259 5.9.942 1.427 1.906 2.487 2.674 2.945.475.282.785.366 1.355.366.563 0 .991-.098 1.816-.415 1.097-.422 1.614-.525 2.46-.492.676.027 1.172.14 1.94.44 1.635.641 2.57.62 3.599-.085.931-.637 2.288-2.406 3.096-4.035.267-.54.679-1.543.7-1.706.008-.065-.077-.133-.35-.278-1.252-.669-2.242-1.809-2.642-3.046-.296-.913-.339-2.178-.105-3.082.294-1.14.926-2.049 1.96-2.823.246-.184.471-.343.5-.352.066-.022-.332-.53-.658-.842-.745-.71-1.715-1.199-2.867-1.445-.624-.134-1.645-.165-2.165-.067Z" fill="#000"/></svg>