<svg width="50" height="50" fill="none" xmlns="http://www.w3.org/2000/svg"><path d="M47.922 12.25a2.466 2.466 0 0 0-.437-1.17 2.53 2.53 0 0 0-.96-.817L26.139.264a2.59 2.59 0 0 0-2.28 0l-20.387 10a2.54 2.54 0 0 0-.956.817c-.244.348-.394.75-.437 1.17-.028.267-2.45 26.914 21.886 37.53a2.556 2.556 0 0 0 2.07 0c24.335-10.616 21.915-37.26 21.887-37.53Z" fill="#4633B9"/><path d="M47.922 12.25a2.466 2.466 0 0 0-.437-1.17 2.53 2.53 0 0 0-.96-.817L26.139.264a2.59 2.59 0 0 0-2.28 0l-20.387 10a2.54 2.54 0 0 0-.956.817c-.244.348-.394.75-.437 1.17-.028.267-2.45 26.914 21.886 37.53a2.556 2.556 0 0 0 2.07 0c24.335-10.616 21.915-37.26 21.887-37.53Z" fill="#1767F9"/><path d="M47.922 12.25a2.466 2.466 0 0 0-.437-1.17 2.53 2.53 0 0 0-.96-.817L26.139.264a2.59 2.59 0 0 0-2.28 0l-20.387 10a2.54 2.54 0 0 0-.956.817c-.244.348-.394.75-.437 1.17-.028.267-2.45 26.914 21.886 37.53a2.556 2.556 0 0 0 2.07 0c24.335-10.616 21.915-37.26 21.887-37.53Z" fill="#4BB1BC"/><path d="M47.922 12.25a2.466 2.466 0 0 0-.437-1.17 2.53 2.53 0 0 0-.96-.817L26.139.264a2.59 2.59 0 0 0-2.28 0l-20.387 10a2.54 2.54 0 0 0-.956.817c-.244.348-.394.75-.437 1.17-.028.267-2.45 26.914 21.886 37.53a2.556 2.556 0 0 0 2.07 0c24.335-10.616 21.915-37.26 21.887-37.53Z" fill="url(#a)"/><path d="M47.922 12.25a2.466 2.466 0 0 0-.437-1.17 2.53 2.53 0 0 0-.96-.817L26.139.264a2.59 2.59 0 0 0-2.28 0l-20.387 10a2.54 2.54 0 0 0-.956.817c-.244.348-.394.75-.437 1.17-.028.267-2.45 26.914 21.886 37.53a2.556 2.556 0 0 0 2.07 0c24.335-10.616 21.915-37.26 21.887-37.53Z" fill="url(#b)" fill-opacity=".5"/><path d="M47.922 12.25a2.466 2.466 0 0 0-.437-1.17 2.53 2.53 0 0 0-.96-.817L26.139.264a2.59 2.59 0 0 0-2.28 0l-20.387 10a2.54 2.54 0 0 0-.956.817c-.244.348-.394.75-.437 1.17-.028.267-2.45 26.914 21.886 37.53a2.556 2.556 0 0 0 2.07 0c24.335-10.616 21.915-37.26 21.887-37.53Z" fill="url(#c)"/><path d="M43.441 14.688v-.004a.639.639 0 0 0-.111-.3l1.233-.855-1.233.854a.652.652 0 0 0-.247-.213h-.002l-17.283-8.6a.669.669 0 0 0-.597 0L7.918 14.168a.661.661 0 0 0-.36.518v.004m35.882-.002L7.56 14.69m35.882-.002v.002c.005.053.126 1.437.007 3.621a37.429 37.429 0 0 1-1.484 8.596C39.99 33.508 35.582 41.1 25.77 45.441l-.007.003a.64.64 0 0 1-.526 0l-.007-.004M43.44 14.689 25.23 45.44M7.559 14.69v.002m0-.002v.002m17.67 30.748C15.42 41.1 11.01 33.508 9.037 26.907M25.23 45.44 9.036 26.907m0 0a37.435 37.435 0 0 1-1.484-8.597m1.484 8.597L7.552 18.31m0 0c-.118-2.178.001-3.559.006-3.618m-.006 3.618.006-3.618" stroke="#FFC530" stroke-width="3"/><path d="M41.446 14.948v.006c.005.058.115 1.337.006 3.354a34.968 34.968 0 0 1-1.366 7.974c-1.816 6.123-5.87 13.152-14.887 17.173l-.008.004a.463.463 0 0 1-.382 0l-.008-.004c-9.016-4.02-13.07-11.05-14.887-17.173-1.825-6.15-1.362-11.308-1.36-11.329v-.003a.507.507 0 0 1 .273-.4L24.78 6.552a.49.49 0 0 1 .44 0l15.954 8h.002a.492.492 0 0 1 .186.162l1.236-.85-1.236.85a.5.5 0 0 1 .085.234ZM25.81 44.825C44.855 36.332 42.96 15.016 42.938 14.8H7.061c-.021.214-1.916 21.532 17.13 30.025a1.965 1.965 0 0 0 1.619 0Z" stroke="#000" stroke-width="3"/><path d="M17 22.659 22.919 28 34 18" stroke="#000" stroke-width="3"/><defs><radialGradient id="a" cx="0" cy="0" r="1" gradientUnits="userSpaceOnUse" gradientTransform="matrix(-12.26682 26.19042 -29.36506 -13.75372 29.6 36.905)"><stop stop-color="#FF8A1E"/><stop offset="1" stop-color="#EF4141"/></radialGradient><radialGradient id="b" cx="0" cy="0" r="1" gradientUnits="userSpaceOnUse" gradientTransform="matrix(-50.5025 -23.8099 29.73012 -63.05969 24.513 25.595)"><stop stop-color="#FFA901"/><stop offset="1" stop-color="#FFC701" stop-opacity="0"/></radialGradient><linearGradient id="c" x1="40.26" y1="0" x2="-.435" y2="70.338" gradientUnits="userSpaceOnUse"><stop stop-color="#FFDF35"/><stop offset="1" stop-color="#FF8A01" stop-opacity="0"/></linearGradient></defs></svg>